<svg xmlns="http://www.w3.org/2000/svg" width="16" height="16" viewBox="0 0 16 16">
    <g fill="none" fill-rule="evenodd">
        <g>
            <g>
                <g>
                    <g>
                        <path fill="#3A4A66" d="M6.973 12c-.209-.001-.416-.047-.606-.133-.421-.186-.695-.6-.7-1.06V5.193c.005-.46.279-.874.7-1.06.484-.228 1.055-.16 1.473.174l3.4 2.806c.27.215.427.542.427.887s-.157.672-.427.887l-3.4 2.806c-.245.2-.551.307-.867.307z" transform="translate(-43.000000, -36.000000) translate(43.000000, 19.000000) translate(0.000000, 3.000000) translate(8.000000, 22.000000) scale(-1, 1) rotate(-270.000000) translate(-8.000000, -22.000000) translate(0.000000, 14.000000)"/>
                    </g>
                </g>
            </g>
        </g>
    </g>
</svg>
