<svg xmlns="http://www.w3.org/2000/svg" width="24" height="24" viewBox="0 0 24 24">
    <g fill="none" fill-rule="evenodd">
        <g fill="#000">
            <g>
                <path d="M5 13h11.86l-3.63 4.36c-.353.425-.295 1.057.13 1.41s1.057.295 1.41-.13l5-6c.034-.048.064-.098.09-.15 0-.05.05-.08.07-.13.045-.115.07-.237.07-.36s-.025-.245-.07-.36c0-.05-.05-.08-.07-.13-.026-.052-.056-.102-.09-.15l-5-6C14.58 5.131 14.297 5 14 5c-.234 0-.46.08-.64.23-.205.17-.333.414-.358.678-.024.265.058.528.228.732L16.86 11H5c-.552 0-1 .448-1 1s.448 1 1 1z" transform="translate(-625.000000, -15.000000) translate(625.000000, 15.000000)"/>
            </g>
        </g>
    </g>
</svg>
