<svg xmlns="http://www.w3.org/2000/svg" width="28" height="28" viewBox="0 0 28 28">
    <g fill="none" fill-rule="evenodd">
        <g>
            <g>
                <g>
                    <g>
                        <path fill="#3A4A66" fill-rule="nonzero" d="M23.94 17.745l-2.1-2.112V10.43c.058-3.995-2.84-7.421-6.79-8.027-2.243-.295-4.504.39-6.206 1.88-1.702 1.49-2.68 3.64-2.684 5.902v5.448l-2.1 2.112c-.54.548-.698 1.366-.403 2.076.296.71.987 1.175 1.756 1.179h3.92v.397c.114 2.466 2.2 4.375 4.667 4.27 2.466.105 4.553-1.804 4.667-4.27V21h3.92c.769-.004 1.46-.469 1.756-1.179.295-.71.136-1.528-.403-2.076zm-7.607 3.652c-.134 1.165-1.162 2.019-2.333 1.936-1.17.083-2.199-.77-2.333-1.936V21h4.666v.397z" transform="translate(-257.000000, -30.000000) translate(43.000000, 19.000000) translate(0.000000, 3.000000) translate(214.000000, 8.000000)"/>
                    </g>
                </g>
            </g>
        </g>
    </g>
</svg>
