<svg width="38" height="38" viewBox="0 0 38 38" xmlns="http://www.w3.org/2000/svg">
    <g fill="none" fill-rule="evenodd">
        <circle fill="#0AF" opacity=".2" cx="19" cy="19" r="19"/>
        <circle fill="#FFF" cx="18.537" cy="18.537" r="14.829"/>
        <path d="M24.955 21.636a6.902 6.902 0 0 1-6.402 4.315c-2.876 0-5.404-1.702-6.44-4.337-.177-.45.025-.969.453-1.156a.802.802 0 0 1 .32-.068c.329 0 .64.205.774.546.776 1.972 2.696 3.246 4.893 3.246a5.228 5.228 0 0 0 4.865-3.248c.183-.449.676-.656 1.1-.461.425.194.621.715.437 1.163z" fill="#3A4A66"/>
    </g>
</svg>
