<svg xmlns="http://www.w3.org/2000/svg" width="22" height="22" viewBox="0 0 22 22">
    <g fill="none" fill-rule="evenodd">
        <g>
            <g>
                <g>
                    <path fill="#3A4A66" fill-rule="nonzero" d="M16.5 3.667h-.917V2.75c0-.506-.41-.917-.916-.917-.507 0-.917.41-.917.917v.917h-5.5V2.75c0-.506-.41-.917-.917-.917-.506 0-.916.41-.916.917v.917H5.5c-1.519 0-2.75 1.23-2.75 2.75v11c0 1.518 1.231 2.75 2.75 2.75h11c1.519 0 2.75-1.232 2.75-2.75v-11c0-1.52-1.231-2.75-2.75-2.75zM7.333 15.583c-.506 0-.916-.41-.916-.916 0-.507.41-.917.916-.917.507 0 .917.41.917.917 0 .506-.41.916-.917.916zm7.334 0H11c-.506 0-.917-.41-.917-.916 0-.507.41-.917.917-.917h3.667c.506 0 .916.41.916.917 0 .506-.41.916-.916.916zm2.75-5.5H4.583V6.417c0-.507.41-.917.917-.917h.917v.917c0 .506.41.916.916.916.507 0 .917-.41.917-.916V5.5h5.5v.917c0 .506.41.916.917.916.506 0 .916-.41.916-.916V5.5h.917c.506 0 .917.41.917.917v3.666z" opacity=".2" transform="translate(-81.000000, -361.000000) translate(65.000000, 85.000000) translate(16.000000, 276.000000)"/>
                </g>
            </g>
        </g>
    </g>
</svg>
