<svg xmlns="http://www.w3.org/2000/svg" width="18" height="18" viewBox="0 0 18 18">
    <g fill="none" fill-rule="evenodd">
        <g>
            <g>
                <path fill="#0AF" fill-rule="nonzero" d="M13.207 4.765c-2.02-2.037-5.202-2.348-7.578-.74-2.376 1.608-3.276 4.68-2.142 7.318.057.12.076.253.053.383l-.525 2.53c-.041.196.02.401.161.544.116.115.273.177.436.173h.12l2.555-.514c.13-.016.262.003.382.054 2.634 1.135 5.702.234 7.307-2.146 1.606-2.38 1.296-5.566-.739-7.59l-.03-.012z" transform="translate(-387.000000, -401.000000) translate(387.000000, 401.000000)"/>
            </g>
        </g>
    </g>
</svg>
