<svg xmlns="http://www.w3.org/2000/svg" width="16" height="16" viewBox="0 0 16 16">
    <g fill="none" fill-rule="evenodd" opacity=".3">
        <g fill="#000">
            <g>
                <g>
                    <path d="M8.94 8l2.867-2.86c.261-.261.261-.685 0-.947-.262-.261-.686-.261-.947 0L8 7.06 5.14 4.193c-.261-.261-.685-.261-.947 0-.261.262-.261.686 0 .947L7.06 8l-2.867 2.86c-.126.125-.197.296-.197.473 0 .178.071.348.197.474s.296.197.474.197c.177 0 .348-.071.473-.197L8 8.94l2.86 2.867c.125.126.296.197.473.197.178 0 .348-.071.474-.197s.197-.296.197-.474c0-.177-.071-.348-.197-.473L8.94 8z" transform="translate(-1152.000000, -352.000000) translate(1147.000000, 344.000000) translate(5.000000, 8.000000)"/>
                </g>
            </g>
        </g>
    </g>
</svg>
