<svg xmlns="http://www.w3.org/2000/svg" width="24" height="24" viewBox="0 0 24 24">
    <g fill="none" fill-rule="evenodd">
        <g>
            <g>
                <path fill="#D0D4DD" d="M13.41 12l4.3-4.29c.392-.392.392-1.028 0-1.42-.392-.392-1.028-.392-1.42 0L12 10.59l-4.29-4.3c-.392-.392-1.028-.392-1.42 0-.392.392-.392 1.028 0 1.42l4.3 4.29-4.3 4.29c-.19.188-.296.443-.296.71 0 .267.107.522.296.71.188.19.443.296.71.296.267 0 .522-.107.71-.296l4.29-4.3 4.29 4.3c.188.19.443.296.71.296.267 0 .522-.107.71-.296.19-.188.296-.443.296-.71 0-.267-.107-.522-.296-.71L13.41 12z" transform="translate(-83.000000, -129.000000) translate(83.000000, 129.000000)"/>
            </g>
        </g>
    </g>
</svg>
