<svg id="Group_2" data-name="Group 2" xmlns="http://www.w3.org/2000/svg" width="22" height="22" viewBox="0 0 22 22">
  <rect id="Rectangle" width="22" height="22" fill="none"/>
  <path id="Combined_Shape" data-name="Combined Shape" d="M12,20a1,1,0,0,1-1-1V12a1,1,0,0,1,1-1h7a1,1,0,0,1,1,1v7a1,1,0,0,1-1,1ZM1,20a1,1,0,0,1-1-1V12a1,1,0,0,1,1-1H8a1,1,0,0,1,1,1v7a1,1,0,0,1-1,1ZM12,9a1,1,0,0,1-1-1V1a1,1,0,0,1,1-1h7a1,1,0,0,1,1,1V8a1,1,0,0,1-1,1ZM1,9A1,1,0,0,1,0,8V1A1,1,0,0,1,1,0H8A1,1,0,0,1,9,1V8A1,1,0,0,1,8,9Z" transform="translate(1 1)" fill="#0af"/>
</svg>
