<svg xmlns="http://www.w3.org/2000/svg" width="20" height="20" viewBox="0 0 20 20">
    <g fill="none" fill-rule="evenodd">
        <g>
            <g>
                <g>
                    <g>
                        <path fill="#3A4A66" fill-rule="nonzero" d="M16.167 6.117l-2.284-2.284c-.617-.58-1.57-.604-2.216-.058l-7.5 7.5c-.27.272-.437.628-.475 1.008l-.359 3.475c-.022.247.066.492.242.667.157.156.37.243.592.242h.075l3.475-.317c.38-.038.736-.206 1.008-.475l7.5-7.5c.606-.64.58-1.65-.058-2.258zM13.333 8.9L11.1 6.667 12.725 5 15 7.275 13.333 8.9z" transform="translate(-1106.000000, -602.000000) translate(181.000000, 590.000000) translate(914.000000, 1.000000) translate(11.000000, 11.000000)"/>
                    </g>
                </g>
            </g>
        </g>
    </g>
</svg>
