<svg xmlns="http://www.w3.org/2000/svg" width="30" height="30" viewBox="0 0 30 30">
    <g fill="none" fill-rule="evenodd">
        <g>
            <g transform="translate(-350.000000, -373.000000) translate(350.000000, 373.000000)">
                <path fill="#3A4A66" fill-rule="nonzero" d="M22.675 8.162l-5.55-6.25c-.236-.261-.572-.411-.925-.412h-10c-.839-.01-1.647.314-2.247.9-.6.586-.943 1.386-.953 2.225v18.75c.01.839.353 1.64.953 2.225.6.586 1.408.91 2.247.9h13.6c.839.01 1.647-.314 2.247-.9.6-.586.943-1.386.953-2.225V9c0-.31-.117-.608-.325-.838zM15.5 4l4.675 5h-3.75c-.264-.016-.511-.137-.685-.337-.174-.2-.26-.461-.24-.726V4z" opacity=".5"/>
                <path fill="#3A4A66" fill-rule="nonzero" d="M27.675 10.162l-5.55-6.25c-.236-.261-.572-.411-.925-.412h-10c-.839-.01-1.647.314-2.247.9-.6.586-.943 1.386-.953 2.225v18.75c.01.839.353 1.64.953 2.225.6.586 1.408.91 2.247.9h13.6c.839.01 1.647-.314 2.247-.9.6-.586.943-1.386.953-2.225V11c0-.31-.117-.608-.325-.838zM20.5 6l4.675 5h-3.75c-.264-.016-.511-.137-.685-.337-.174-.2-.26-.461-.24-.726V6z"/>
                <rect width="15" height="8" x="4" y="16" fill="#FFF" stroke="#3A4A66" rx="2"/>
                <path fill="#3A4A66" fill-rule="nonzero" d="M7.874 22v-1.368h.51c.444 0 .808-.11 1.092-.33.284-.22.426-.546.426-.978 0-.44-.139-.757-.417-.951-.278-.194-.653-.291-1.125-.291H7.052V22h.822zm.456-2.022h-.456v-1.242h.432c.268 0 .467.046.597.138.13.092.195.242.195.45 0 .436-.256.654-.768.654zM11.426 22v-1.368h.51c.444 0 .808-.11 1.092-.33.284-.22.426-.546.426-.978 0-.44-.139-.757-.417-.951-.278-.194-.653-.291-1.125-.291h-1.308V22h.822zm.456-2.022h-.456v-1.242h.432c.268 0 .467.046.597.138.13.092.195.242.195.45 0 .436-.256.654-.768.654zM15.752 22v-3.228h1.098v-.69h-3.012v.69h1.092V22h.822z"/>
            </g>
        </g>
    </g>
</svg>
