<svg xmlns="http://www.w3.org/2000/svg" width="30" height="30" viewBox="0 0 30 30">
    <g fill="none" fill-rule="evenodd">
        <g>
            <g>
                <g>
                    <g>
                        <g>
                            <path fill="#3A4A66" fill-rule="nonzero" d="M24.675 9.162l-5.55-6.25c-.236-.261-.572-.411-.925-.412h-10c-.839-.01-1.647.314-2.247.9-.6.586-.943 1.386-.953 2.225v18.75c.01.839.353 1.64.953 2.225.6.586 1.408.91 2.247.9h13.6c.839.01 1.647-.314 2.247-.9.6-.586.943-1.386.953-2.225V10c0-.31-.117-.608-.325-.838zM17.5 5l4.675 5h-3.75c-.264-.016-.511-.137-.685-.337-.174-.2-.26-.461-.24-.726V5z" transform="translate(-500.000000, -407.000000) translate(225.000000, 167.000000) translate(12.000000, 234.000000) translate(257.000000, 0.000000) translate(6.000000, 6.000000)"/>
                        </g>
                    </g>
                </g>
            </g>
        </g>
    </g>
</svg>
