<svg xmlns="http://www.w3.org/2000/svg" width="30" height="30" viewBox="0 0 30 30">
    <g fill="none" fill-rule="evenodd">
        <g>
            <g transform="translate(-815.000000, -373.000000) translate(815.000000, 373.000000)">
                <path fill="#D3D5DD" fill-rule="nonzero" d="M22.5 3.75h-15c-2.071 0-3.75 1.679-3.75 3.75v15c0 2.071 1.679 3.75 3.75 3.75h15c2.071 0 3.75-1.679 3.75-3.75v-15c0-2.071-1.679-3.75-3.75-3.75zm-15 2.5h15c.69 0 1.25.56 1.25 1.25v10.45l-4-3.412c-1.278-1.052-3.122-1.052-4.4 0l-9.1 7.587V7.5c0-.69.56-1.25 1.25-1.25z"/>
                <circle cx="10" cy="10.625" r="1.875" fill="#D3D5DD"/>
            </g>
        </g>
    </g>
</svg>
