<svg id="link-2" xmlns="http://www.w3.org/2000/svg" width="30" height="30" viewBox="0 0 30 30">
  <rect id="Rectangle" width="30" height="30" opacity="0"/>
  <path id="Path" d="M5.37.368l-5,5A1.255,1.255,0,1,0,2.145,7.143l5-5A1.255,1.255,0,0,0,5.37.368Z" transform="translate(11.243 11.245)" fill="#3a4a66"/>
  <path id="Path-2" data-name="Path" d="M12.84,9.257l-1.6,1.587a5.25,5.25,0,0,1-6.975.5,5,5,0,0,1-.338-7.412L5.7,2.145A1.255,1.255,0,1,0,3.927.37L2.34,1.97A7.688,7.688,0,0,0,1.5,12.057a7.575,7.575,0,0,0,11.337.75l1.775-1.775A1.255,1.255,0,0,0,12.84,9.257Z" transform="translate(2.51 12.493)" fill="#3a4a66"/>
  <path id="Path-3" data-name="Path" d="M12.074,1.517a7.725,7.725,0,0,0-10.162.85L.561,3.742A1.363,1.363,0,0,0,.349,5.755a1.25,1.25,0,0,0,1.775,0L3.749,4.117a5.213,5.213,0,0,1,6.963-.5,5,5,0,0,1,.337,7.438L9.274,12.842a1.255,1.255,0,1,0,1.775,1.775l1.775-1.775a7.575,7.575,0,0,0-.75-11.325Z" transform="translate(12.501 2.508)" fill="#3a4a66"/>
</svg>
