<svg id="link-2" xmlns="http://www.w3.org/2000/svg" width="22" height="22" viewBox="0 0 22 22">
  <rect id="Rectangle" width="22" height="22" opacity="0"/>
  <path id="Combined_Shape" data-name="Combined Shape" d="M5.135,18.316A5.557,5.557,0,0,1,1.1,16.164a5.637,5.637,0,0,1,.614-7.4L2.88,7.593a.92.92,0,1,1,1.3,1.3l-1.3,1.311a3.667,3.667,0,0,0,.247,5.436,3.849,3.849,0,0,0,5.115-.367l1.174-1.164a.92.92,0,0,1,1.3,1.3l-1.3,1.3A5.552,5.552,0,0,1,5.5,18.328Q5.319,18.328,5.135,18.316Zm1.541-6.671a.915.915,0,0,1,0-1.3l3.667-3.667a.92.92,0,1,1,1.3,1.3L7.977,11.645a.917.917,0,0,1-1.3,0Zm7.452-.926a.917.917,0,0,1,0-1.3l1.3-1.31a3.668,3.668,0,0,0-.248-5.455,3.824,3.824,0,0,0-5.107.367L8.884,4.22a.917.917,0,0,1-1.3,0,1,1,0,0,1,.156-1.476l.99-1.008a5.666,5.666,0,0,1,7.453-.624,5.555,5.555,0,0,1,.55,8.305l-1.3,1.3a.916.916,0,0,1-1.3,0Z" transform="translate(1.841 1.839)" fill="#0af"/>
</svg>
