<svg width="130" height="25" xmlns="http://www.w3.org/2000/svg">
    <defs>
        <linearGradient x1="-.012%" y1="50.111%" x2="99.991%" y2="50.111%" id="a">
            <stop stop-color="#FF9705" offset="0%"/>
            <stop stop-color="#FEDD2A" offset="35%"/>
            <stop stop-color="#0EE881" offset="66%"/>
            <stop stop-color="#4BCFFA" offset="100%"/>
        </linearGradient>
    </defs>
    <g fill-rule="nonzero" fill="none">
        <path d="m40.955 16.723 1.822-2.264a4.87 4.87 0 0 0 1.561 1.189 4.338 4.338 0 0 0 1.886.437 2.527 2.527 0 0 0 1.472-.377c.34-.211.545-.587.535-.988.006-.407-.19-.79-.524-1.023a4.904 4.904 0 0 0-1.822-.652c-2.952-.599-4.429-2.055-4.429-4.368a3.55 3.55 0 0 1 1.366-2.863 5.447 5.447 0 0 1 3.568-1.132 7.013 7.013 0 0 1 2.641.51 7.5 7.5 0 0 1 2.214 1.35l-1.743 2.263c-.992-.822-1.923-1.23-2.795-1.23a2.23 2.23 0 0 0-1.226.31.947.947 0 0 0-.475.826c0 .792.724 1.335 2.177 1.637 1.574.317 2.737.84 3.489 1.569a3.772 3.772 0 0 1 1.132 2.837 3.772 3.772 0 0 1-1.441 3.017c-.955.793-2.237 1.189-3.837 1.189a8.265 8.265 0 0 1-3.165-.6 6.367 6.367 0 0 1-2.406-1.637zM57.428 9.786v8.89h-3.629V.002h3.629v6.51a5.18 5.18 0 0 1 1.724-1.324 4.82 4.82 0 0 1 2.116-.494 5.281 5.281 0 0 1 3.938 1.543 5.485 5.485 0 0 1 1.509 4.025v8.416h-3.629v-8.061a2.708 2.708 0 0 0-.754-1.94 2.607 2.607 0 0 0-1.973-.776 2.931 2.931 0 0 0-1.652.554c-.515.35-.95.804-1.28 1.332zM75.316 4.693a5.941 5.941 0 0 1 4.326 1.69V5.01h3.588v13.667h-3.588v-1.373a5.956 5.956 0 0 1-4.326 1.69 6.526 6.526 0 0 1-3.497-.97 6.726 6.726 0 0 1-2.448-2.606 7.446 7.446 0 0 1-.876-3.577 7.439 7.439 0 0 1 .876-3.572 6.752 6.752 0 0 1 2.448-2.61 6.526 6.526 0 0 1 3.497-.966zm.754 11.094a3.953 3.953 0 0 0 2.131-.592c.62-.38 1.118-.93 1.434-1.584v-3.535A3.772 3.772 0 0 0 78.2 8.492c-.64-.395-1.379-.6-2.131-.592a3.874 3.874 0 0 0-3.942 3.941 3.874 3.874 0 0 0 3.942 3.946zM93.894 18.677l-3.573-5.975H89.19v5.975h-3.625V0h3.625v9.588h1.173l2.863-4.579h4.097l-4.01 6.149 4.606 7.518zM38.1 6.164a5.111 5.111 0 0 0-3.867-1.558 5.349 5.349 0 0 0-2.584.676 5.481 5.481 0 0 0-1.958 1.72c-.187-.3-.403-.58-.645-.838a5.115 5.115 0 0 0-3.87-1.558c-.9.007-1.783.239-2.57.676-.713.38-1.336.91-1.825 1.554v.03a5.492 5.492 0 0 0-.547-.683 5.115 5.115 0 0 0-3.87-1.558 5.36 5.36 0 0 0-2.573.657 5.538 5.538 0 0 0-1.965 1.731 4.904 4.904 0 0 0-1.864-1.735 5.39 5.39 0 0 0-2.606-.626 4.527 4.527 0 0 0-2.075.49 4.95 4.95 0 0 0-1.63 1.313v-1.51H0v13.732h3.651V9.77a4.772 4.772 0 0 1 1.294-1.392 2.72 2.72 0 0 1 1.6-.547 2.312 2.312 0 0 1 1.803.754c.477.535.73 1.234.705 1.95v8.14h3.652V10.71c0-.211 0-.51-.027-.902a4.877 4.877 0 0 1 1.313-1.426 2.731 2.731 0 0 1 1.607-.55 2.293 2.293 0 0 1 1.81.777 2.81 2.81 0 0 1 .683 1.927v8.14h3.637v-8.49c0-.23 0-.457-.03-.676a4.715 4.715 0 0 1 1.097-1.109 2.712 2.712 0 0 1 1.604-.55c.69-.026 1.356.259 1.814.777a2.83 2.83 0 0 1 .683 1.927v8.122h3.659V9.808a4.862 4.862 0 0 1 1.301-1.407 2.727 2.727 0 0 1 1.603-.55 2.301 2.301 0 0 1 1.815.777 2.81 2.81 0 0 1 .683 1.927v8.122h3.651v-8.491a5.556 5.556 0 0 0-1.509-4.022zM18.352 3.588a2.01 2.01 0 0 1-.623-1.49 2.01 2.01 0 0 1 .619-1.49c.86-.81 2.203-.81 3.063 0 .405.388.63.929.619 1.49a2.01 2.01 0 0 1-.619 1.509c-.86.81-2.203.81-3.063 0l.004-.02z" fill="#03657C"/>
        <path d="M128.477 6.138a5.236 5.236 0 0 0-3.995-1.562 6.994 6.994 0 0 0-4.587 1.683l.257-1.358h-3.542l-1.984 10.407c-.257.08-.524.123-.793.125a2.203 2.203 0 0 1-1.63-.57 2.045 2.045 0 0 1-.591-1.509 3.074 3.074 0 0 1 .049-.585l1.509-7.959h-3.576l-.023.102-1.686 8.808a5.779 5.779 0 0 1-1.51 1.324 3.418 3.418 0 0 1-1.734.547 2.195 2.195 0 0 1-1.626-.573 2 2 0 0 1-.592-1.51 2.833 2.833 0 0 1 .049-.588l1.508-7.959h-3.576L98.82 13.26a6.258 6.258 0 0 0-.124 1.26 4.051 4.051 0 0 0 1.214 3.074 4.527 4.527 0 0 0 3.252 1.132 5.455 5.455 0 0 0 2.184-.494c.476-.21.926-.476 1.34-.793.459-.35.897-.728 1.312-1.131.069-.067.143-.128.222-.181.202.499.508.949.898 1.32.89.793 2.058 1.2 3.248 1.132a5.281 5.281 0 0 0 1.694-.306l-1.17 6.137h3.543l1.414-7.397c.917 1.105 2.23 1.66 3.95 1.649a7.405 7.405 0 0 0 3.62-.932 8.955 8.955 0 0 0 2.898-2.58 8.834 8.834 0 0 0 1.543-3.535 7.42 7.42 0 0 0 .14-1.467 5.594 5.594 0 0 0-1.52-4.01zm-2.21 5.485a4.715 4.715 0 0 1-1.649 2.776 4.564 4.564 0 0 1-2.984 1.132 3.395 3.395 0 0 1-1.991-.577 2.784 2.784 0 0 1-1.113-1.558l.671-3.493a4.806 4.806 0 0 1 1.705-1.57 4.587 4.587 0 0 1 2.218-.592 3.21 3.21 0 0 1 2.328.864c.596.581.922 1.386.898 2.218-.002.269-.03.536-.083.8z" fill="url(#a)"/>
    </g>
</svg>
