<svg xmlns="http://www.w3.org/2000/svg" width="22" height="22" viewBox="0 0 22 22">
    <defs>
        <filter id="4fzo6ivrga" color-interpolation-filters="auto">
            <feColorMatrix in="SourceGraphic" values="0 0 0 0 0.223529 0 0 0 0 0.290196 0 0 0 0 0.403922 0 0 0 1.000000 0"/>
        </filter>
    </defs>
    <g fill="none" fill-rule="evenodd">
        <g filter="url(#4fzo6ivrga)" transform="translate(-285.000000, -38.000000)">
            <g>
                <path fill="#0AF" d="M5.793 12.415c2.393-.993 5.15-.448 6.985 1.38 1.383-1.069 3.253-1.26 4.822-.49 1.57.77 2.565 2.364 2.567 4.112 0 .506-.41.916-.917.916h-4.583c0 .507-.41.917-.917.917h-11c-.506 0-.917-.41-.917-.917.004-2.591 1.566-4.926 3.96-5.918zm9.79-5.998c1.52 0 2.75 1.23 2.75 2.75 0 1.518-1.23 2.75-2.75 2.75-1.518 0-2.75-1.232-2.75-2.75 0-1.52 1.232-2.75 2.75-2.75zM8.25 2.75c2.025 0 3.667 1.642 3.667 3.667s-1.642 3.666-3.667 3.666-3.667-1.641-3.667-3.666S6.225 2.75 8.25 2.75z" transform="translate(285.000000, 38.000000)"/>
            </g>
        </g>
    </g>
</svg>
