<svg xmlns="http://www.w3.org/2000/svg" width="22" height="22" viewBox="0 0 22 22">
    <defs>
        <filter id="9w67f3398a" color-interpolation-filters="auto">
            <feColorMatrix in="SourceGraphic" values="0 0 0 0 0.223529 0 0 0 0 0.290196 0 0 0 0 0.403922 0 0 0 1.000000 0"/>
        </filter>
    </defs>
    <g fill="none" fill-rule="evenodd">
        <g filter="url(#9w67f3398a)" transform="translate(-210.000000, -38.000000)">
            <g>
                <path d="M0 0H22V22H0z" transform="translate(210.000000, 38.000000)"/>
                <g fill="#0AF">
                    <path fill-rule="nonzero" d="M13.462 20H2.692C1.205 20 0 18.795 0 17.308V6.538c0-1.486 1.205-2.692 2.692-2.692h10.77c1.486 0 2.692 1.206 2.692 2.692v10.77c0 1.487-1.206 2.692-2.692 2.692zM2.692 5.641c-.495 0-.897.402-.897.897v10.77c0 .495.402.897.897.897h10.77c.495 0 .897-.402.897-.897V6.538c0-.495-.402-.897-.897-.897H2.692z" transform="translate(210.000000, 38.000000) translate(1.000000, 1.000000)"/>
                    <path fill-rule="nonzero" d="M17.308 0C18.795 0 20 1.205 20 2.692v10.77c0 1.486-1.205 2.692-2.692 2.692v-1.795c.495 0 .897-.402.897-.897V2.692c0-.495-.402-.897-.897-.897H6.538c-.495 0-.897.402-.897.897H3.846C3.846 1.205 5.052 0 6.538 0h10.77z" transform="translate(210.000000, 38.000000) translate(1.000000, 1.000000)"/>
                    <path d="M6.801 16.186c-.227-.001-.45-.05-.657-.142-.457-.198-.754-.64-.76-1.13V8.933c.006-.49.303-.932.76-1.13.524-.243 1.144-.172 1.597.185l3.687 2.99c.292.23.463.578.463.945 0 .368-.17.716-.463.945L7.74 15.86c-.266.212-.597.327-.94.327z" transform="translate(210.000000, 38.000000) translate(1.000000, 1.000000)"/>
                </g>
            </g>
        </g>
    </g>
</svg>
