<svg xmlns="http://www.w3.org/2000/svg" width="20" height="20" viewBox="0 0 20 20">
    <g fill="none" fill-rule="evenodd">
        <g fill="#D0D4DD" fill-rule="nonzero">
            <g>
                <path d="M8.5 0C13.194 0 17 3.806 17 8.5c0 1.987-.681 3.814-1.823 5.261l4.53 4.532c.39.39.39 1.024 0 1.414-.39.39-1.024.39-1.414 0l-4.532-4.53C12.314 16.319 10.487 17 8.5 17 3.806 17 0 13.194 0 8.5S3.806 0 8.5 0zm0 2C4.91 2 2 4.91 2 8.5S4.91 15 8.5 15c1.77 0 3.376-.708 4.548-1.856l.045-.051c.016-.016.033-.032.05-.046C14.292 11.876 15 10.27 15 8.5 15 4.91 12.09 2 8.5 2z" transform="translate(-83.000000, -130.000000) translate(83.000000, 130.000000)"/>
            </g>
        </g>
    </g>
</svg>
