<svg width="24" height="24" viewBox="0 0 24 24" xmlns="http://www.w3.org/2000/svg">
    <g fill="none" fill-rule="evenodd">
        <circle fill="#FF9705" opacity=".201" cx="12" cy="12" r="12"/>
        <circle fill="#FFF" cx="12" cy="12" r="9.231"/>
        <path d="M15.366 15.078c-.561 1.298-1.876 2.137-3.348 2.137-1.505 0-2.827-.843-3.369-2.147a.438.438 0 1 1 .81-.336c.405.976 1.41 1.607 2.559 1.607 1.123 0 2.121-.631 2.544-1.608a.438.438 0 1 1 .804.347z" fill="#3A4A66"/>
        <path d="M17.793 8.675h-.852A2.544 2.544 0 0 0 15.208 8a2.54 2.54 0 0 0-1.956.912 2.061 2.061 0 0 0-2.504 0A2.54 2.54 0 0 0 8.791 8c-.67 0-1.28.257-1.732.675h-.852c-.2 0-.36.158-.36.352 0 .195.16.353.36.353h.321a2.4 2.4 0 0 0-.257 1.082c0 1.357 1.13 2.461 2.52 2.461 1.39 0 2.521-1.104 2.521-2.461 0-.332-.068-.648-.19-.937a1.323 1.323 0 0 1 1.756 0c-.122.29-.19.605-.19.937 0 1.357 1.13 2.461 2.52 2.461 1.39 0 2.521-1.104 2.521-2.461a2.4 2.4 0 0 0-.257-1.082h.321c.2 0 .36-.158.36-.353a.356.356 0 0 0-.36-.352zM8.792 12.22c-.993 0-1.8-.789-1.8-1.757 0-.97.807-1.758 1.8-1.758.992 0 1.799.789 1.799 1.758 0 .968-.807 1.757-1.8 1.757zm6.416 0c-.992 0-1.799-.789-1.799-1.757 0-.97.807-1.758 1.8-1.758.992 0 1.799.789 1.799 1.758 0 .968-.807 1.757-1.8 1.757z" fill="#3A4A66" fill-rule="nonzero"/>
    </g>
</svg>
