<svg width="1440" height="172" viewBox="0 0 1440 172" xmlns="http://www.w3.org/2000/svg" xmlns:xlink="http://www.w3.org/1999/xlink">
    <defs>
        <linearGradient x1="50%" y1="98.342%" x2="50%" y2="0%" id="b">
            <stop stop-color="#A8E2FF" offset="0%"/>
            <stop stop-color="#FFF" offset="100%"/>
        </linearGradient>
        <path id="a" d="M0 0h1440v172H0z"/>
    </defs>
    <g fill="none" fill-rule="evenodd">
        <mask id="c" fill="#fff">
            <use xlink:href="#a"/>
        </mask>
        <use fill="url(#b)" xlink:href="#a"/>
        <path d="M537 49.693C537 37.925 527.598 10 516 10s-21 27.925-21 39.693C495.008 61.463 504.408 71 516 71s20.992-9.537 21-21.307z" fill="#35EA9A" fill-rule="nonzero" opacity=".5" mask="url(#c)"/>
        <path d="M516.5 96c-.276 0-.5-.109-.5-.243V46.243c0-.134.224-.243.5-.243s.5.109.5.243v49.514c0 .134-.224.243-.5.243z" fill="#3F3D56" fill-rule="nonzero" mask="url(#c)"/>
        <path d="M515.752 56a.248.248 0 0 1-.188-.086l-12.503-14.5a.251.251 0 0 1 .025-.353c.103-.09.26-.08.35.025l12.503 14.5a.251.251 0 0 1-.187.414zM516.229 64a.229.229 0 0 1-.162-.39l6.543-6.543a.229.229 0 0 1 .323.323l-6.542 6.543a.228.228 0 0 1-.162.067z" fill="#CCC" fill-rule="nonzero" mask="url(#c)"/>
        <path d="M598 49.693C598 37.925 588.598 10 577 10s-21 27.925-21 39.693C556.008 61.463 565.408 71 577 71s20.992-9.537 21-21.307z" fill="#35EA9A" fill-rule="nonzero" opacity=".5" mask="url(#c)"/>
        <path d="M488 98c0-4.418 3.806-8 8.5-8s8.5 3.582 8.5 8" fill="#2F2E41" fill-rule="nonzero" opacity=".3" mask="url(#c)"/>
        <path d="M577.5 96c-.276 0-.5-.109-.5-.243V46.243c0-.134.224-.243.5-.243s.5.109.5.243v49.514c0 .134-.224.243-.5.243z" fill="#3F3D56" fill-rule="nonzero" mask="url(#c)"/>
        <path d="M576.752 56a.248.248 0 0 1-.188-.086l-12.503-14.5a.251.251 0 0 1 .025-.353c.103-.09.26-.08.35.025l12.503 14.5a.251.251 0 0 1-.187.414zM577.229 64a.229.229 0 0 1-.162-.39l6.543-6.543a.229.229 0 0 1 .323.323l-6.542 6.543a.228.228 0 0 1-.162.067z" fill="#CCC" fill-rule="nonzero" mask="url(#c)"/>
        <path d="M788 98c0-4.418 3.806-8 8.5-8s8.5 3.582 8.5 8M906 98c0-4.418 3.806-8 8.5-8s8.5 3.582 8.5 8M815 98c0-4.418 3.806-8 8.5-8s8.5 3.582 8.5 8" fill="#2F2E41" fill-rule="nonzero" opacity=".3" mask="url(#c)"/>
        <g mask="url(#c)" fill-rule="nonzero">
            <path d="M1034 49.693c0-11.768-9.402-39.693-21-39.693s-21 27.925-21 39.693c.008 11.77 9.408 21.307 21 21.307s20.992-9.537 21-21.307z" fill="#0EE881" opacity=".5"/>
            <path d="M1013.5 96c-.276 0-.5-.109-.5-.243V46.243c0-.134.224-.243.5-.243s.5.109.5.243v49.514c0 .134-.224.243-.5.243z" fill="#3F3D56"/>
            <path d="M1012.752 56a.248.248 0 0 1-.188-.086l-12.503-14.5a.251.251 0 0 1 .025-.353c.103-.09.26-.08.35.025l12.503 14.5a.251.251 0 0 1-.187.414zM1013.229 64a.229.229 0 0 1-.162-.39l6.543-6.543a.229.229 0 0 1 .323.323l-6.542 6.543a.228.228 0 0 1-.162.067z" fill="#CCC"/>
        </g>
        <g opacity=".7" mask="url(#c)" fill-rule="nonzero">
            <g transform="matrix(-1 0 0 1 1550 -19)">
                <circle fill="#FF9705" opacity=".5" transform="matrix(-1 0 0 1 408 0)" cx="204" cy="42" r="31"/>
                <circle fill="#0AF" opacity=".5" transform="matrix(-1 0 0 1 284 0)" cx="142" cy="74" r="40"/>
                <path d="M113.164 47c-7.727 18.13-1.217 39.206 15.378 49.778 16.594 10.572 38.381 7.524 51.458-7.199-6.245 14.656-20.527 24.232-36.416 24.418-15.89.187-30.39-9.052-36.976-23.556-6.586-14.505-4.014-31.541 6.556-43.441z" fill="#000" opacity=".1"/>
                <path fill="#3F3D56" d="M142 74h.105L144 187h-4zM204 48h.105L206 131h-4z"/>
            </g>
        </g>
        <g opacity=".7" mask="url(#c)" fill-rule="nonzero">
            <g transform="translate(823 -21)">
                <circle fill="#FEDD2A" opacity=".5" transform="matrix(-1 0 0 1 142 0)" cx="71" cy="33" r="33"/>
                <path d="M96.552 11c6.423 14.883 1.011 32.184-12.781 40.863C69.978 60.54 51.869 58.039 41 45.953c5.191 12.03 17.061 19.892 30.268 20.045 13.206.153 25.26-7.43 30.733-19.338 5.474-11.906 3.337-25.892-5.45-35.66z" fill="#000" opacity=".1"/>
                <path fill="#3F3D56" d="M71.5 33h-.08L70 127h3z"/>
                <path d="M28.5 107C12.76 107 0 94.24 0 78.5S12.76 50 28.5 50 57 62.76 57 78.5 44.24 107 28.5 107z" fill="#0AF" opacity=".5"/>
                <path d="M49.872 60c5.42 12.718.853 27.503-10.784 34.919C27.45 102.335 12.17 100.197 3 89.869c4.38 10.28 14.396 16.998 25.539 17.13 11.142.13 21.312-6.35 25.93-16.526C59.09 80.3 57.286 68.348 49.873 60z" fill="#000" opacity=".1"/>
                <path fill="#3F3D56" d="M29.5 78h-.079L28 159h3z"/>
            </g>
        </g>
        <path d="M796.194 20.723 799 18.038c-2.18-.288-3.076 1.134-3.443 2.26-1.703-.846-3.557.263-3.557.263L797.615 23c-.283-.905-.776-1.695-1.421-2.277zM666.194 10.723 669 8.038c-2.18-.288-3.076 1.134-3.443 2.26-1.703-.846-3.557.263-3.557.263L667.615 13c-.283-.905-.776-1.695-1.421-2.277zM759.194 32.723 762 30.038c-2.18-.288-3.076 1.134-3.443 2.26-1.703-.846-3.557.263-3.557.263L760.615 35c-.283-.905-.776-1.695-1.421-2.277z" fill="#3F3D56" fill-rule="nonzero" mask="url(#c)"/>
        <g opacity=".7" mask="url(#c)" fill-rule="nonzero">
            <g transform="translate(-11 -13)">
                <circle fill="#0AF" opacity=".5" cx="83.5" cy="43.5" r="43.5"/>
                <circle fill="#FEDD2A" opacity=".5" transform="matrix(-1 0 0 1 66 0)" cx="33" cy="102" r="33"/>
                <path d="M58.552 80c6.423 14.883 1.011 32.184-12.781 40.863-13.793 8.678-31.902 6.176-42.771-5.91 5.191 12.03 17.061 19.892 30.268 20.045 13.206.153 25.26-7.43 30.733-19.338 5.474-11.906 3.337-25.892-5.45-35.66z" fill="#000" opacity=".1"/>
                <path fill="#3F3D56" d="M33.5 102h-.08L32 196h3z"/>
                <path d="M49.362 15c-9.726 22.563.832 48.674 23.581 58.32 17.699 7.504 38.253 2.955 51.057-11.3-9.724 22.565-36.05 33.038-58.799 23.393-22.75-9.645-33.308-35.755-23.584-58.319A44.385 44.385 0 0 1 49.362 15z" fill="#000" opacity=".1"/>
                <path fill="#3F3D56" d="m86 168-5-1.265.01-.484 1.498-73.444.075-3.661.003-.108.26-12.83.38-18.599v-.002L83.485 45h.136l.264 13.658.343 17.776.246 12.614v.093l.01.52v.002l.475 24.587.05 2.444.98 50.817zM62.839 134.491l7.321-3.854 1.02 1.938-7.32 3.854zM120.194 49.723 123 47.038c-2.18-.288-3.076 1.134-3.443 2.26-1.703-.846-3.557.263-3.557.263L121.615 52c-.283-.905-.776-1.695-1.421-2.277zM9.194 47.723 12 45.038c-2.18-.288-3.076 1.134-3.443 2.26-1.703-.846-3.557.263-3.557.263L10.615 50c-.283-.905-.776-1.695-1.421-2.277zM113.194 91.723 116 89.038c-2.18-.288-3.076 1.134-3.443 2.26-1.703-.846-3.557.263-3.557.263L114.615 94c-.283-.905-.776-1.695-1.421-2.277z"/>
            </g>
        </g>
        <path d="M684.35 78.053c.359 0 .65-.283.65-.632a.641.641 0 0 0-.65-.632h-6.181v-2.526h6.18c.36 0 .651-.283.651-.631a.641.641 0 0 0-.65-.632h-52.7c-.359 0-.65.283-.65.632 0 .348.291.631.65.631h6.181v2.526h-6.18c-.36 0-.651.283-.651.632 0 .349.291.632.65.632h6.181v2.526h-6.18c-.36 0-.651.283-.651.632 0 .348.291.631.65.631h6.181v2.526h-5.53c-.718 0-1.301.566-1.301 1.264 0 .697.583 1.263 1.301 1.263h5.265a.917.917 0 0 0-.06.316v8.842c0 .523.437.947.976.947.539 0 .976-.424.976-.947V87.21a.917.917 0 0 0-.06-.316h37.204a.917.917 0 0 0-.06.316v8.842c0 .523.437.947.976.947.54 0 .976-.424.976-.947V87.21a.917.917 0 0 0-.06-.316h5.265c.718 0 1.301-.566 1.301-1.263 0-.698-.583-1.264-1.301-1.264h-5.53v-2.526h6.18c.36 0 .651-.283.651-.631a.641.641 0 0 0-.65-.632h-6.181v-2.526h6.18zm-45.217-3.79h37.734v2.526h-37.734v-2.526zm37.734 10.105h-37.734v-2.526h37.734v2.526zm0-3.79h-37.734v-2.525h37.734v2.526zM466.35 78.053c.359 0 .65-.283.65-.632a.641.641 0 0 0-.65-.632h-6.181v-2.526h6.18c.36 0 .651-.283.651-.631a.641.641 0 0 0-.65-.632h-52.7c-.359 0-.65.283-.65.632 0 .348.291.631.65.631h6.181v2.526h-6.18c-.36 0-.651.283-.651.632 0 .349.291.632.65.632h6.181v2.526h-6.18c-.36 0-.651.283-.651.632 0 .348.291.631.65.631h6.181v2.526h-5.53c-.718 0-1.301.566-1.301 1.264 0 .697.583 1.263 1.301 1.263h5.265a.917.917 0 0 0-.06.316v8.842c0 .523.437.947.976.947.539 0 .976-.424.976-.947V87.21a.917.917 0 0 0-.06-.316h37.204a.917.917 0 0 0-.06.316v8.842c0 .523.437.947.976.947.54 0 .976-.424.976-.947V87.21a.917.917 0 0 0-.06-.316h5.265c.718 0 1.301-.566 1.301-1.263 0-.698-.583-1.264-1.301-1.264h-5.53v-2.526h6.18c.36 0 .651-.283.651-.631a.641.641 0 0 0-.65-.632h-6.181v-2.526h6.18zm-45.217-3.79h37.734v2.526h-37.734v-2.526zm37.734 10.105h-37.734v-2.526h37.734v2.526zm0-3.79h-37.734v-2.525h37.734v2.526z" fill="#3F3D56" fill-rule="nonzero" opacity=".5" mask="url(#c)"/>
        <g mask="url(#c)" fill-rule="nonzero">
            <g transform="matrix(-1 0 0 1 727 49)">
                <path fill="#FFB8B8" d="M27 42h2.033L30 33h-3z"/>
                <path d="M27 44h7v-.095C34 42.301 32.78 41 31.275 41H27v3z" fill="#2F2E41"/>
                <path fill="#FFB8B8" d="M3.437 19 3 21.237 11.355 24 12 20.698z"/>
                <path d="M1.315 19 0 25.93l.084.018c1.437.293 2.83-.677 3.113-2.167L4 19.548 1.315 19zM29 14.853s-6.38 6.534-8.898 9.549c-2.518 3.015-4.029.838-4.029.838l-6.438-1.722L6 22.392s.672-3.183.84-3.016c.167.168 10.023 1.077 10.023 1.077s2.568-3.087 2.736-5.097C19.766 13.346 24.13 11 24.13 11L29 14.853z" fill="#2F2E41"/>
                <path d="M27.536 15s1.344 5.71 3.277 7.351c1.934 1.642.922 3.061.922 3.061L29.048 37l-3.36-.168s1.197-9.452 1.365-10.628c.168-1.175-4.053-6.67-4.053-6.67L27.536 15z" fill="#2F2E41"/>
                <circle fill="#FFB8B8" transform="matrix(-1 0 0 1 78 0)" cx="39" cy="4" r="3"/>
                <path d="M32.33 12.523c-.49 0-1.958 2.957-1.958 2.957s-3.262 1.044-3.751.174c-.49-.87-1.794-2.261-2.936-2.783-1.142-.522-.653-1.044 0-1.566.652-.521 2.773-1.913 4.73-4.348C30.372 4.522 33.47 4 33.797 4c.327 0 1.142 3.479 1.142 3.479.49 1.043-2.12 5.044-2.61 5.044z" fill="#0AF"/>
                <path d="M40.066 2.919c-.63.288-1.365 1.798-2.25 1.14a2.2 2.2 0 0 0-.238-.188.627.627 0 0 0-.719.201c-.18.197-.285.449-.458.652a.66.66 0 0 1-.708.254l-.422-.901a3.006 3.006 0 0 1-.252-.67 2.035 2.035 0 0 1 .582-1.72A6.205 6.205 0 0 1 37.141.58a4.213 4.213 0 0 1 1.223-.538 1.433 1.433 0 0 1 1.26.284c.114.133.238.259.371.374.24.114.494.198.756.25.487.184.772.67 1.017 1.122.128.197.208.421.232.654.023 1.058-1.37-.066-1.934.192zM33.601 43.99c-4.528-.15-11.709-.002-11.781 0l-.1.001-.048-.08c-.011-.02-1.11-1.857-2.608-1.58L19 42.034c1.56-.287 2.664 1.268 2.91 1.651.879-.017 7.454-.137 11.703.002 4.378.144 5.077-1.248 5.084-1.262l.303.114c-.027.062-.684 1.46-4.766 1.46a19.2 19.2 0 0 1-.633-.01z" fill="#2F2E41"/>
                <rect fill="#2F2E41" transform="matrix(-1 0 0 1 69 0)" x="34" y="45" width="1" height="1" rx=".5"/>
                <path d="M22.537 45h-.074a.463.463 0 0 0-.463.463v.074c0 .256.207.463.463.463h.074a.463.463 0 0 0 .463-.463v-.074a.463.463 0 0 0-.463-.463z" fill="#2F2E41"/>
                <path d="M34.176 18.696a1.275 1.275 0 0 0-.188-.047l-2.352-5.123.832-1.1L30.908 11l-1.67 1.809a.877.877 0 0 0-.094 1.08l3.521 5.397c-.228.441-.149.973.2 1.334.347.362.892.478 1.366.293.475-.186.78-.634.769-1.127a1.19 1.19 0 0 0-.824-1.09z" fill="#FFB8B8"/>
                <path d="M29 11.516c0 .18 2.057 2.71 2.64 2.468.582-.242.789-1.023 1.667-1.83C34.185 11.349 35 7 35 7s-6 4.335-6 4.516z" fill="#0AF"/>
            </g>
        </g>
        <g mask="url(#c)" fill-rule="nonzero">
            <g transform="matrix(-1 0 0 1 1002 47)">
                <path fill="#FFB7B7" d="m.563 46.756 1.353.494L4.5 42.354l-1.998-.729z"/>
                <path d="m1.133 45.563 2.333.825c.821.29 1.24 1.16.934 1.941l-.018.046-3.82-1.351.57-1.462z" fill="#2F2E41"/>
                <path fill="#FFB7B7" d="M13.5 47.25h1.144l.543-5.625H13.5z"/>
                <path d="M13.5 47.25h2.748c.968 0 1.752.732 1.752 1.634v.053h-4.5V47.25zM7.293 11.577l.446-.89 3.786 1.892-.112.778.724.946s1.225.667 1.002 2.892l-.223 2.114-.278 2.725 1.949 6.73 1.002 8.9.723 7.175-3.507-.166-3.23-11.681-5.678 12.57-3.897-1 5.345-12.46.668-5.228s-.446-2.782 1.67-4.673l-.334-1v-1.235L6.235 14.08l1.058-2.503z" fill="#2F2E41"/>
                <path fill="#000" opacity=".2" d="m7.264 23.459.127-.036 2.46 8.724-.126.036z"/>
                <path fill="#3F3D56" d="M12.937 21.937H7.312v-1.125h5.625z"/>
                <circle fill="#3F3D56" cx="12.375" cy="21.375" r="1"/>
                <circle fill="#FFB7B7" transform="rotate(-61.337 10.616 6.573)" cx="10.616" cy="6.573" r="2.981"/>
                <circle fill="#2F2E41" cx="6.75" cy="2.813" r="2.813"/>
                <path d="M2.93 3.938c-.304.79-.008 1.646.765 2.213.772.567 1.89.749 2.893.47 1.002-.277 1.717-.968 1.85-1.786-.42 1.091-1.85 1.75-3.287 1.517-1.438-.235-2.404-1.285-2.221-2.415z" fill="#2F2E41"/>
                <path d="M13.559 5.308c.16 1.264-.646 2.467-1.964 2.933-1.32.467-2.822.08-3.666-.941-.844-1.022-.819-2.426.062-3.423.88-.996 2.397-1.338 3.698-.833.524-.38 1.172-.262 1.7.138.596.452.773.763 1.236 1.506-.455.057-.611.562-1.066.62z" fill="#2F2E41"/>
                <path d="M1.689 13.91c.032.844.095 2.503.095 2.588 0 .089 1.263 2.694 1.809 3.815l.104.214c.086.178.268.29.466.285l2.384-.042a.507.507 0 0 0 .5-.494l.265-10.449a.258.258 0 0 0-.259-.264H3.98a.691.691 0 0 0-.622.388L1.88 12.993a1.938 1.938 0 0 0-.192.918zM7.516 20.25a7.12 7.12 0 0 0 1.719-1.377 7.37 7.37 0 0 0 1.986-4.395c.128-1.394-.164-2.43-.867-3.08-.894-.827-2.111-.707-2.163-.701l-.054.005-.825.662.234.262.737-.592c.226-.011 1.148-.013 1.821.611.62.575.875 1.518.757 2.804a7.037 7.037 0 0 1-1.887 4.186c-.47.515-1.02.959-1.632 1.315l.174.3z" fill="#0AF"/>
                <path fill="#3F3D56" d="m3.16 16.53.002-.004 4.349.893-.001.005z"/>
                <path fill="#3F3D56" d="m5.814 17.074.283-6.92h.005l-.283 6.92zM2.814 15.135c.028.896.084 2.659.084 2.749 0 .095 1.119 2.862 1.602 4.053l-.9-6.25c-.072-.49-.358-.895-.75-1.062-.03.167-.042.339-.036.51z"/>
                <path d="M9.738 27.742a1.093 1.093 0 0 1-.156-.802.967.967 0 0 1 .429-.654l-.172-2.212 1.133-.449.206 3.127c.173.453.026.984-.34 1.236-.368.253-.84.147-1.1-.246z" fill="#FFB7B7"/>
            </g>
        </g>
    </g>
</svg>
