<svg xmlns="http://www.w3.org/2000/svg" width="28" height="28" viewBox="0 0 28 28">
    <g fill="none" fill-rule="evenodd">
        <g>
            <g>
                <g>
                    <g transform="translate(-137.000000, -30.000000) translate(43.000000, 19.000000) translate(0.000000, 3.000000) translate(94.000000, 8.000000)">
                        <circle cx="14" cy="14" r="14" fill="#3A4A66"/>
                        <g>
                            <path fill="#F1F9FF" d="M10 9.167c1.84 0 3.333-1.493 3.333-3.334 0-1.84-1.492-3.333-3.333-3.333-1.84 0-3.333 1.492-3.333 3.333 0 1.841 1.492 3.334 3.333 3.334zM15 17.5c.46 0 .833-.373.833-.833 0-3.222-2.611-5.834-5.833-5.834s-5.833 2.612-5.833 5.834c0 .46.373.833.833.833h10z" transform="translate(4.000000, 4.000000)"/>
                        </g>
                    </g>
                </g>
            </g>
        </g>
    </g>
</svg>
